<svg xmlns="http://www.w3.org/2000/svg" width="37" height="37"><path fill-rule="evenodd" fill="#84C458" d="M11.404 6.61c2.703 0 4.842.83 6.524 2.04l.023.018c1.187.896 2.218 1.996 3.509 3.205.025.604.427 1.235.795 1.887.371.648.717 2.01.996 2.006a.088.088 0 0 0 .112.048.087.087 0 0 0 .054-.079v-.029c.019-1.156-.48-3.211-1.223-4.166-.517-.82-1.054-2.395-1.979-3.213 1.605-1.033 3.595-1.717 6.05-1.717 10.271 0 13.447 13.159 6.997 20.981-5.738 6.959-14.428 8.647-14.428 8.647s-8.69-1.688-14.428-8.647C-2.43 19.769 1.133 6.61 11.404 6.61ZM2.859 2.154c-1.551.192-2.63-.803-2.63-.803s.699 2.071 4.217 3.504c3.831 1.56 5.332.325 8.897.621.04.005.08.011.12.019-.228-.151.037-.299-.686-.035-1.037-1.034-2.112-1.55-3.27-1.839-.289-.094-.584-.117-.883-.18-.15-.032-.3-.027-.453-.048.019-.017-.307-.034-.46-.03.179-.027-1.256.021-1.917.169.481-.062 1.122-.814 1.791-1.021.167-.061.339-.095 1.385-.131-.7-.032-.524-.078-.348-.091.352-.025.714-.073 1.068-.036 1.435.062 2.815.573 4.01 1.292l.862.59c.145.096.276.209.404.323.544.076.171.149.256.224-.846-1.95-2.691-4.534-6.518-4.431-2.495.067-4.295 1.71-5.845 1.903Z"/></svg>