<svg xmlns="http://www.w3.org/2000/svg" width="39" height="54"><path fill-rule="evenodd" fill="#84C458" d="M.347 32.373c.915.877 4.353 4.337 3.051 4.461-.048.146.826.953 1.396 1.491-.334-.033 1.183 2.139.707 2.367 4.817 3.997 7.892 10.05 13.658 12.885 1.581 1.346 1.07-1.377 1.417-1.977.605-.65.211-3.03.812-4.32.722-2.774 1.004-5.413 1.527-8.098 1.615-2.517 1.519-6.468 2.499-9.473.088-.473.238-1.599.148-2.439l-.182.604c.07-.296.21-.59.132-.881l-.212.686c.048-.253.143-.569.182-.771-.19.524-.326 1.262.218 1.762-.482-1.48-.94-.742-1.471.751.371-1.698-.271.429-.302.894-.196.034.393-1.548.27-1.771.313 1.036-.394 1.049-.488 1.56-.322.294 1.011-1.3.219-1.269-.147.513-.22.771-.372 1.293.072-.755-.314-.198-.314-.697-.121-1.721-1.046.461-1.372 1.73.004-.303.03-.656.066-1.042-2.419 4.851-2.972 9.531-4.122 15.272-3.408-7.941-3.248-19.468 1.061-26.875 4.076-7.616 11.847-12.15 19.376-17.32l-.737.358c.334-.193.735-.317.981-.628l-.958.465c.259-.144.622.179.895-.482-.655.273-1.432.745-2.003 1.023 1.695-1.064.516-.788-1.482.748.311-.797.952-1.105.909-1.134-.239-.162-1.536.865-1.893 1.007-.176-.106 1.831-1.062 1.996-1.308-.649.302-1.36.602-1.809.973-.674.045 1.43-.871 1.308-.929-.641.308-.95.508-1.577.851.804-.606-.049-.39.456-.827 2.347-.48-1.375.117-2.784.558.31-.276.695-.553 1.103-.271C14.555 7.866 7.879 28.901 14.939 45.902c-4.631-4.647-9.09-8.997-13.149-13.417-.47.418-1.675-.524-1.443-.112Z"/></svg>