<svg xmlns="http://www.w3.org/2000/svg" viewBox="0 0 121 40"><path fill="#494450" d="M120.97 38.98h-4.63l-1.23-3.1h-6l-1.2 3.1h-4.7l6.76-15.64h4.24l3.97 9.07h2.79v3.47h-1.31l1.3 3.1Zm-8.19-10.74-2.33 4.17h3.28l-.95-4.17ZM95.21 39.92l-6.44-16.77h4.92l3.61 10.02 3.6-10.02h4.84L99.3 39.92h-4.1Zm-.32-23.48-1.23-3.1h-6l-1.21 3.1h-4.7L88.51.5h4.24l3.98 9.37h2.78v3.47H98.2l1.31 3.1H94.9ZM90.62 5.7 89 9.87h3.28L90.62 5.7Zm-4.4 28.86c-2.5 3.81-7.91 4.74-7.91 4.74s-4.77-.93-7.92-4.74c-3.53-4.3-1.8-11.06 3.84-11.06 1.48 0 2.66 0 3.58.67h.01c.65.5 1.57 1.1 1.7 1.77.24.33.46.67.66 1.03s.4.72.55 1.74c0 .24.04-.6.06.26.02-.07.03-.25.03-.43v-.16a5.8 5.8 0 0 0-.67-2.9c-.29-.53-.65-1.04-.51-1.49.3-.56 1.71-.49 2.74-.49 5.76 0 7.38 6.77 3.84 11.06ZM69.8 7.76v8.68h-5.08V.61h4.11l6.53 8.37V.6h4.36v15.83h-3.86L69.8 7.76ZM62.93 35.2l2.67 4.75h-5.08l-2.07-3.96h-2v3.96h-3.97v-3.96h-2.25v-3.47h2.25v-9.37h7.34a6.63 6.63 0 0 1 6.44 6.42 6.42 6.42 0 0 1-3.33 5.63Zm-4.32-8.53h-2.16v5.92h2.19c2.21 0 3.56-1.15 3.56-2.98 0-1.92-1.35-2.94-3.6-2.94ZM56.64 4.24h-1.82V.61h6.78v15.83h-4.96V4.24ZM42.26.61h4.4V12.6h7.7v3.84h-12.1V.61ZM34.3 13.34h-6l-.78 3.1h-5.09l1.32-3.1h-1.32V9.87h2.79L29.18.5h4.25l6.76 15.94h-4.7l-1.2-3.1ZM31.32 5.7l-1.66 4.17h3.28L31.32 5.7Zm1.28 21.18h-8.42v2.4h7.62v3.46h-7.62v2.5h8.53v3.74H19.83V23.15H32.6v3.73Zm-22.05 9H7.2v3.1H2.8v-3.1H.97V32.4h1.82v-9.07h7.76c3.56 0 6.45 2.57 6.45 6.12 0 3.54-2.9 6.42-6.45 6.42Zm-1.2-9.33H7.18v5.92h2.19c2.21 0 3.56-1.15 3.56-2.97 0-1.92-1.35-2.95-3.6-2.95ZM49.2 27h-4.76v11.99H40.4v-12h-5.12v-3.84H49.2v3.84Zm23.26-5.7c.08 0 .17 0 .25.02.16.04.62.05.48.1.64.16 1.23.44 1.8.78l.37.25a.5.5 0 0 0-.06-.01c-1.96-.25-2.78.51-4.88.44-1.93-1.57-2.32-2.7-2.32-2.7s.6.54 1.45.44c.85-.11 1.83-1.01 3.2-1.05 2.1-.05 3.11 1.36 3.58 2.43l-.14-.12c-.08-.06.24-.13-.23-.18l-.47-.32c-.66-.4-.7-.68-2.2-.71.69-.02-.4 0-.58.02-.1 0-.2.03-.3.05l-.27.07c-.37.12-.72 1.16-.98.56.36-.08.7-.1 1.05-.09.08 0 .17 0 .25.02Z"/></svg>